<?xml version="1.0" encoding="utf-8"?>
<!-- Generator: Adobe Illustrator 22.0.1, SVG Export Plug-In . SVG Version: 6.00 Build 0)  -->
<svg version="1.1" id="Capa_1" xmlns="http://www.w3.org/2000/svg" xmlns:xlink="http://www.w3.org/1999/xlink" x="0px" y="0px"
	 viewBox="0 0 125 125" style="enable-background:new 0 0 125 125;" xml:space="preserve">
<style type="text/css">
	.st0{fill:#FFFFFF;}
</style>
<g>
	<path class="st0" d="M62.5,16C36.9,16,16,36.9,16,62.5C16,88.1,36.9,109,62.5,109c25.6,0,46.5-20.9,46.5-46.5
		C109,36.9,88.1,16,62.5,16L62.5,16z M74.1,64.1h-7.6v27H55.3v-27H50v-9.5h5.3v-6.2c0-4.4,2.1-11.3,11.3-11.3l8.3,0v9.2h-6
		c-1,0-2.4,0.5-2.4,2.6v5.6H75L74.1,64.1z M74.1,64.1"/>
</g>
</svg>
