<?xml version="1.0" encoding="utf-8"?>
<!-- Generator: Adobe Illustrator 22.0.1, SVG Export Plug-In . SVG Version: 6.00 Build 0)  -->
<svg version="1.1" id="Capa_1" xmlns="http://www.w3.org/2000/svg" xmlns:xlink="http://www.w3.org/1999/xlink" x="0px" y="0px"
	 viewBox="0 0 125 125" style="enable-background:new 0 0 125 125;" xml:space="preserve">
<style type="text/css">
	.st0{fill:#666666;}
</style>
<g>
	<path class="st0" d="M62.5,12c-21.4,0-38.8,17.6-38.8,39.2c0,20.4,31.9,54.5,35.4,58.3l3.4,3.6l3.4-3.4
		c3.6-3.9,35.4-38.1,35.4-58.4C101.3,29.6,83.9,12,62.5,12z M62.5,99.3C51.9,87.5,33,63.7,33,51c0-16.5,13.2-29.7,29.5-29.7
		S92,34.7,92,51C92,63.7,73.1,87.5,62.5,99.3z"/>
	<path class="st0" d="M62.5,29.6c-10.1,0-18.2,8.1-18.2,18.3c0,10.1,8.1,18.3,18.2,18.3s18.2-8.1,18.2-18.3S72.6,29.6,62.5,29.6z"/>
</g>
</svg>
